<svg xmlns="http://www.w3.org/2000/svg" viewBox="0 0 433 134.8"><style>.st0{fill:#FFFFFF;} .st1{fill:#14120F;} .st2{fill:url(#SVGID_3_);} .st3{clip-path:url(#SVGID_7_);} .st4{fill:url(#SVGID_8_);} .st5{fill:url(#SVGID_9_);} .st6{fill:url(#SVGID_10_);} .st7{fill:url(#SVGID_11_);} .st8{clip-path:url(#SVGID_13_);}</style><path class="st0" d="M301.3 70l-.7-.1c-8.8-1.8-14.7-9.5-14.7-19.2 0-11.2 8.2-19.6 19.1-19.6 5.2 0 9.2 1.8 11.6 3.3l.4.3.6 9h-3.1l-.2-.8c-.5-2.1-2.6-8.9-9.4-8.9-6.6 0-10.7 6.4-10.7 16.8 0 8.8 2.7 14.6 7.5 16.3l1.3.5-1 1.4c-.2.2-.3.4-.5.7l-.2.3zm-257.5-.2c-8.6 0-15.7-5.4-17.9-13.8l-.3-.9.9-.3c1.9-.6 3.7-1.5 5.5-2.5l1.4-.8.1 1.6C34.3 61.9 38.1 67 44 67c2.2 0 4-.6 5.5-1.7V54.6c0-.6-.1-.8-.1-.8-.2-.2-1.8-.3-2.9-.4l-1-.1v-3.1h15.3v3.1l-.9.1c-.8.1-2.1.2-2.3.4 0 0-.1.2-.1.9v14.9h-2.3l-.8-3c-2.1 1.3-5.8 3.2-10.6 3.2zm172-.2h-2.7l-21.8-30.7v26c0 .8 0 1 5.3 1.2h1v3.2h-14v-3.2l1-.1c1.3-.1 3.2-.2 3.4-.4 0 0 .1-.2.1-.8v-28c0-1.7 0-2.3-3.5-2.5l-1-.1V31h11.9l17.1 24.5V35.7c0-.8 0-1-5.3-1.2h-1v-3.2h14v3.2l-1 .1c-1.3.1-3.2.2-3.4.4 0 0-.1.2-.1.8v33.8zm182-.2h-15.9v-3.1l1-.1c1.1-.1 2.7-.2 2.9-.4 0 0 .1-.2.1-.8V34.4h-1.3c-3.4 0-5.5 2.2-6.5 6.6l-.2.8h-3.1l.3-10.6h29.3l.3 10.6h-3l-.2-.8c-.9-4.4-3.1-6.6-6.5-6.6h-1.3v30.5c0 .6.1.8.1.8.2.2 1.8.3 2.9.4l1 .1v3.2zm-30.7 0h-15.9v-3.1l1-.1c1.1-.1 2.7-.2 2.9-.4 0 0 .1-.2.1-.8V51.5h-14.7v9.6l-1.5-.9c-1.8-1-3.7-1.8-5.7-2.4l-.7-.2v-22c0-.6-.1-.8-.1-.8-.2-.2-1.8-.3-2.9-.4l-1-.1v-3.1h15.9v3.1l-1 .1c-1.1.1-2.7.2-2.9.4 0 0-.1.2-.1.8v12.7h14.7V35.6c0-.6-.1-.8-.1-.8-.2-.2-1.8-.3-2.9-.4l-1-.1v-3.1h15.9v3.1l-1 .1c-1.1.1-2.7.2-2.9.4 0 0-.1.2-.1.8v29.3c0 .6.1.8.1.8.2.2 1.8.3 2.9.4l1 .1v3.2zm-88 0h-15.9v-3.2l1-.1c1.1-.1 2.7-.2 2.9-.4 0 0 .1-.2.1-.8V35.6c0-.6-.1-.8-.1-.8-.2-.2-1.8-.3-2.9-.4l-1-.1v-3.1h15.9v3.1l-1 .1c-1.1.1-2.7.2-2.9.4 0 0-.1.2-.1.8v29.3c0 .6.1.8.1.8.2.2 1.8.3 2.9.4l1 .1v3.2zm-23.9 0H227v-3.2l1-.1c1.1-.1 2.7-.2 2.9-.4 0 0 .1-.2.1-.8V35.6c0-.6-.1-.8-.1-.8-.2-.2-1.8-.3-2.9-.4l-1-.1v-3.1h16v3.2l-1 .1c-1.1.1-2.7.2-2.9.4 0 0-.1.2-.1.8v30.4h6.7c4 0 6.1-1.9 7.3-6.6l.2-.8h2.7l-.7 10.7zm-80.4 0h-28.7v-3.2l1-.1c1.1-.1 2.7-.2 2.9-.4 0 0 .1-.2.1-.8V35.3v-.6c-.3-.1-1-.1-1.7-.2-.4 0-.8 0-1.2-.1l-1-.1v-3.2h28.4l.3 10.6h-3l-.2-.8c-1.1-4.8-2.8-6.6-6.3-6.6h-7.2v13.9h4c2.3 0 3.7-.8 4.2-4.7l.1-.9h3.1v14.5h-3.1l-.1-.9c-.4-4-1.9-4.7-4.2-4.7h-4v14.6h6.9c4 0 6-1.9 7.3-6.6l.2-.8h3.1l-.9 10.7zm-37.3 0h-28.7v-3.2l1-.1c1.1-.1 2.7-.2 2.9-.4 0 0 .1-.2.1-.8V35.3v-.6c-.3-.1-1-.1-1.7-.2-.4 0-.8 0-1.2-.1l-1-.1v-3.2h28.4l.3 10.6h-3l-.2-.8c-1.1-4.8-2.8-6.6-6.3-6.6h-7.2v13.9h4c2.3 0 3.7-.8 4.2-4.7l.1-.9h3.1v14.5H129l-.1-.9c-.4-4-1.9-4.7-4.2-4.7h-4v14.6h6.9c4 0 6-1.9 7.3-6.6l.2-.8h3.1l-.7 10.7zm-35.8 0H91.4l-.3-.4c-1.2-1.6-2.7-3.9-3.6-5.6L84.6 58c-1.3-2.2-2.5-3.7-3.8-4.6h-2v11.5c0 .6.1.8.1.8.2.2 1.8.3 2.9.4l1 .1v3.1H66.9v-3.2l1-.1c1.1-.1 2.7-.2 2.9-.4 0 0 .1-.2.1-.8V35.6c0-.6-.1-.8-.1-.8-.2-.2-1.8-.3-2.9-.4l-1-.1v-3.2h16.7c8 0 13.2 4.3 13.2 10.8 0 6-4.3 9.2-9.4 10.5 2.9 1.3 4.2 3 5.3 4.7l3.9 6.4c1.5 2.3 2.1 2.6 4.2 2.6h1v3.3zM78.9 50.2H81c5.1 0 7.4-2.4 7.4-7.9 0-5.3-2.1-7.9-6.2-7.9h-3.3v15.8zm231.4 10.7V55c0-.6-.1-.8-.1-.8-.2-.2-1.8-.3-2.9-.4l-1-.1v-3.1H321v3.1l-.9.1c-.8.1-2.1.2-2.3.4 0 0 .5.2.5.9v2.5l-.7.2c-2.1.6-4 1.4-5.7 2.3l-1.6.8zM56.8 43.1h-3.1l-.2-.8c-.4-1.7-2.1-7.2-7.1-8.6l-.9-.2.2-.9c0-.3.1-.6.1-.9l.1-1 1 .1c4 .5 6.9 1.9 8.7 3.1l.4.3.8 8.9zM40 100.1c0-3.9-8.2-3-8.2-8.5 0-2.6 2.2-4.6 5.3-4.6 1.9 0 3.5.6 4.5 1.5L40.3 90c-.9-.7-1.9-1.2-3.4-1.2-2 0-3.2 1.1-3.2 2.7 0 4 8.2 3.2 8.2 8.5 0 2.6-2.1 4.8-5.8 4.8-2.6 0-4.4-.9-5.4-1.8l1.2-1.6c1 .8 2.3 1.6 4.4 1.6 2.4 0 3.7-1.3 3.7-2.9zM59.5 92.2c0 3.4-2 5.5-6 5.5h-2.6v6.8h-2V87.2h5c3.4 0 5.6 1.5 5.6 5zM50.9 89v7h2.6c2.9 0 3.9-1.3 3.9-3.5 0-2.5-1.4-3.4-4-3.4h-2.5zM71.4 104.7c-4.1 0-6.6-2.4-6.6-8.8s2.6-9 6.8-9c4.1 0 6.6 2.4 6.6 8.8s-2.6 9-6.8 9zm.1-1.7c2.9 0 4.7-1.7 4.7-7 0-5.4-1.8-7.2-4.7-7.2-2.8 0-4.6 1.6-4.6 7-.1 5.4 1.8 7.2 4.6 7.2zM88.8 87.2c3.6 0 5.8 1.4 5.8 4.8 0 2.8-1.8 4.5-3.9 4.7v.1c.7.3 1.3.9 2.1 2.2l3.2 5.4h-2.3L90.5 99c-.7-1.1-1.4-1.6-2.7-1.6h-1.4v7.2h-2V87.2h4.4zm-2.4 8.4h2.2c2.4 0 3.9-.9 3.9-3.3s-1.4-3.3-4-3.3h-2.1v6.6zM105.3 89h-4.6v-1.7h11.2V89h-4.6v15.5h-2V89zM125.5 100.1c0-3.9-8.2-3-8.2-8.5 0-2.6 2.2-4.6 5.3-4.6 1.9 0 3.5.6 4.5 1.5l-1.2 1.5c-.9-.7-1.9-1.2-3.4-1.2-2 0-3.2 1.1-3.2 2.7 0 4 8.2 3.2 8.2 8.5 0 2.6-2.1 4.8-5.8 4.8-2.6 0-4.4-.9-5.4-1.8l1.2-1.6c1 .8 2.3 1.6 4.4 1.6 2.3 0 3.6-1.3 3.6-2.9zM145 95.4c-.7-.8-1.7-2-1.7-3.8 0-2.2 1.7-4 4.3-4 2.6 0 4.2 1.8 4.2 4 0 1.8-1 3.7-4 4.5 1.2 1.3 2.4 2.5 4.4 4.2.9-1.4 1.2-3.1 1.2-4.7h1.7c0 1.8-.5 4-1.7 5.7 1.1 1 2.4 2.1 3.4 2.8v.3h-2.4c-.5-.4-1.3-1.1-2.1-1.8-1.2 1.2-3 2.1-5.7 2.1-4.1 0-5.7-2.5-5.7-4.7 0-2.4 1.8-3.8 4.1-4.6zm6.1 6.2c-2-1.8-3.8-3.6-5-5-2.2.6-3.4 1.6-3.4 3.3 0 1.6 1.3 3.3 4.1 3.3 1.9.1 3.4-.6 4.3-1.6zm-4.3-6.7c2.8-.7 3.3-1.9 3.3-3.3 0-1.3-.9-2.4-2.4-2.4s-2.5.9-2.5 2.4 1 2.7 1.6 3.3zM171 104.5V87.2h9.2V89H173v5.9h6.3v1.7H173v6.1h7.5v1.7H171zM189.7 89.6c0 .4.1 4 .1 4.6v10.3h-1.9V87.2h2.8l5.8 10.9c.2.3 1.8 3.5 2 3.9h.2V87.2h1.8v17.3h-2.7l-5.9-11c-.2-.3-1.8-3.5-2-3.9h-.2zM211.7 89h-4.6v-1.7h11.2V89h-4.6v15.5h-2V89zM224.9 104.5V87.2h9.2V89h-7.2v5.9h6.3v1.7h-6.3v6.1h7.5v1.7h-9.5zM246.1 87.2c3.6 0 5.8 1.4 5.8 4.8 0 2.8-1.8 4.5-3.9 4.7v.1c.7.3 1.3.9 2.1 2.2l3.2 5.4H251l-3.1-5.5c-.7-1.1-1.4-1.6-2.7-1.6h-1.4v7.2h-2V87.2h4.3zm-2.3 8.4h2.2c2.4 0 3.9-.9 3.9-3.3s-1.4-3.3-4-3.3h-2.1v6.6zM263 89h-4.6v-1.7h11.2V89H265v15.5h-2V89zM283.6 99.5h-6.9l-1.6 5h-2l5.6-17.3h3.1l5.6 17.3h-2.1l-1.7-5zm-.5-1.8l-1.8-5.8c-.1-.5-.9-3-1-3.3h-.1c0 .3-.9 2.8-1 3.3l-1.9 5.9h5.8zM294.1 87.2h2v17.3h-2V87.2zM306.7 89.6c0 .4.1 4 .1 4.6v10.3h-1.9V87.2h2.8l5.8 10.9c.2.3 1.8 3.5 2 3.9h.2V87.2h1.8v17.3h-2.7l-5.9-11c-.2-.3-1.8-3.5-2-3.9h-.2zM334.4 99.5l4.9-12.3h3.1v17.3h-1.9v-15h-.1c-1.4 3.3-3.7 9.1-5.1 12.5h-2.1l-5.1-12.5h-.1v14.9h-1.9V87.2h3.2l4.9 12.3h.2zM350.6 104.5V87.2h9.2V89h-7.2v5.9h6.3v1.7h-6.3v6.1h7.5v1.7h-9.5zM369.4 89.6c0 .4.1 4 .1 4.6v10.3h-1.9V87.2h2.8l5.8 10.9c.2.3 1.8 3.5 2 3.9h.2V87.2h1.8v17.3h-2.7l-5.9-11c-.2-.3-1.8-3.5-2-3.9h-.2zM391.3 89h-4.6v-1.7h11.1V89h-4.6v15.5h-2V89z"/></svg>