<svg xmlns="http://www.w3.org/2000/svg" viewBox="0 0 26.7 26"><style>.st0{fill:#FFFFFF;} .st1{fill:none;}</style><path class="st0" d="M23.3 21.7c0 .5-.3.8-.8.9H4c-.4-.1-.7-.4-.7-.8V11.3h2.3c-.5 2-.3 3.8.8 5.6.7 1.3 1.8 2.2 3.1 2.9 1.3.7 2.7 1 4.2.9 2.5-.1 4.5-1.2 6-3.1 1.5-1.9 1.9-4.1 1.3-6.4h2.2v8.5c.1.8.1 1.4.1 2m0-14.2c0 .5-.3.9-.8.9h-3.2c-.4 0-.9-.3-1-.8v-.1-2.8c0-.5.4-1 1-1h3c.5 0 .9.3 1 .8v3m-5 5.7c0 2.6-2.2 4.7-5 4.7s-5-2.1-5-4.7 2.2-4.7 5-4.7 5 2.1 5 4.7m8.4 9.8V3s0-3-3-3H3S0 0 0 3v20s0 3 3 3h20.7s3 0 3-3"/><path class="st1" d="M0 0h26.7v26H0z"/></svg>
