<svg xmlns="http://www.w3.org/2000/svg" viewBox="0 0 26.7 26"><style>.st0{fill:#FFFFFF;} .st1{display:none;fill:none;}</style><path class="st0" d="M21.2 7.5c.8-.1 1.6-.3 2.3-.6-.5.8-1.2 1.5-2 2.1v.5C21.5 14.8 17.4 21 10 21c-2.3 0-4.4-.7-6.2-1.8.3 0 .6.1 1 .1 1.9 0 3.6-.6 5-1.7-1.8 0-3.3-1.2-3.8-2.8.2 0 .5.1.8.1.4 0 .7 0 1.1-.1-1.8-.4-3.2-2-3.2-4v-.1c.5.3 1.2.5 1.8.5-1.1-.7-1.8-2-1.8-3.4 0-.7.2-1.4.5-2 2 2.4 5 4.1 8.3 4.2-.1-.3-.1-.6-.1-.9 0-2.2 1.8-4 4-4 1.2 0 2.2.5 2.9 1.3.9-.2 1.8-.5 2.6-1-.2.8-.9 1.6-1.7 2.1M26.7 23V3s0-3-3-3H3S0 0 0 3v20s0 3 3 3h20.7s3 0 3-3"/><path class="st1" d="M0 0h26.7v26H0z"/></svg>